<svg width="36" height="27" viewBox="0 0 36 27" fill="none" xmlns="http://www.w3.org/2000/svg">
<path d="M35.445 2.5C34.752 1.309 33.477 0.5 32 0.5H18V2.5H35.445ZM0 20.5H36V22.5H0V20.5ZM18 12.5H36V14.5H18V12.5ZM18 8.5H36V10.5H18V8.5ZM0 16.5H36V18.5H0V16.5ZM4 26.5H32C33.477 26.5 34.752 25.691 35.445 24.5H0.555C1.248 25.691 2.523 26.5 4 26.5ZM18 4.5H36V6.5H18V4.5Z" fill="#B22334"/>
<path d="M0.068 23.179C0.085 23.272 0.104 23.365 0.127 23.456C0.153 23.557 0.185 23.654 0.219 23.752C0.308 24.011 0.416 24.261 0.552 24.495L0.555 24.5H35.445L35.447 24.496C35.582 24.263 35.69 24.013 35.779 23.755C35.813 23.656 35.846 23.557 35.872 23.454C35.895 23.364 35.914 23.272 35.931 23.179C35.972 22.959 36 22.733 36 22.5H0C0 22.733 0.028 22.958 0.068 23.179ZM0 18.5H36V20.5H0V18.5ZM0 14.5V16.5H36V14.5H18H0ZM18 10.5H36V12.5H18V10.5ZM18 6.5H36V8.5H18V6.5ZM0 4.5C0 4.267 0.03 4.043 0.068 3.821C0.028 4.042 0 4.267 0 4.5ZM0.555 2.5L0.552 2.505L0.555 2.5ZM0.128 3.544C0.153 3.442 0.188 3.345 0.22 3.247C0.186 3.345 0.154 3.443 0.128 3.544ZM18 4.5H36C36 4.267 35.972 4.041 35.931 3.82C35.914 3.728 35.896 3.636 35.872 3.546C35.845 3.443 35.813 3.343 35.778 3.244C35.689 2.986 35.581 2.737 35.446 2.504C35.447 2.503 35.446 2.501 35.445 2.5H18V4.5Z" fill="#EEEEEE"/>
<path d="M18 0.5H4C1.791 0.5 0 2.291 0 4.5V14.5H18V0.5Z" fill="#3C3B6E"/>
<path d="M2.00195 3.226L2.61995 3.675L2.38395 4.4L3.00095 3.952L3.61895 4.4L3.38295 3.675L4.00095 3.226H3.23695L3.00095 2.5L2.76595 3.226H2.00195ZM4.00195 5.226L4.61995 5.675L4.38395 6.4L5.00095 5.952L5.61895 6.4L5.38295 5.675L6.00095 5.226H5.23695L5.00095 4.5L4.76595 5.226H4.00195ZM8.00195 5.226L8.61995 5.675L8.38395 6.4L9.00095 5.952L9.61895 6.4L9.38295 5.675L10.001 5.226H9.23695L9.00095 4.5L8.76595 5.226H8.00195ZM12.002 5.226L12.62 5.675L12.384 6.4L13.001 5.952L13.619 6.4L13.383 5.675L14.001 5.226H13.237L13.001 4.5L12.766 5.226H12.002ZM4.00195 9.226L4.61995 9.675L4.38395 10.4L5.00095 9.952L5.61895 10.4L5.38295 9.675L6.00095 9.226H5.23695L5.00095 8.5L4.76595 9.226H4.00195ZM8.00195 9.226L8.61995 9.675L8.38395 10.4L9.00095 9.952L9.61895 10.4L9.38295 9.675L10.001 9.226H9.23695L9.00095 8.5L8.76595 9.226H8.00195ZM12.002 9.226L12.62 9.675L12.384 10.4L13.001 9.952L13.619 10.4L13.383 9.675L14.001 9.226H13.237L13.001 8.5L12.766 9.226H12.002ZM6.00195 3.226L6.61995 3.675L6.38395 4.4L7.00095 3.952L7.61895 4.4L7.38295 3.675L8.00095 3.226H7.23695L7.00095 2.5L6.76595 3.226H6.00195ZM10.002 3.226L10.62 3.675L10.384 4.4L11.001 3.952L11.619 4.4L11.383 3.675L12.001 3.226H11.237L11.001 2.5L10.766 3.226H10.002ZM14.002 3.226L14.62 3.675L14.384 4.4L15.001 3.952L15.619 4.4L15.383 3.675L16.001 3.226H15.237L15.001 2.5L14.766 3.226H14.002ZM2.00195 7.226L2.61995 7.675L2.38395 8.4L3.00095 7.952L3.61895 8.4L3.38295 7.675L4.00095 7.226H3.23695L3.00095 6.5L2.76595 7.226H2.00195ZM6.38395 8.4L7.00095 7.952L7.61895 8.4L7.38295 7.675L8.00095 7.226H7.23695L7.00095 6.5L6.76595 7.226H6.00195L6.61995 7.675L6.38395 8.4ZM10.002 7.226L10.62 7.675L10.384 8.4L11.001 7.952L11.619 8.4L11.383 7.675L12.001 7.226H11.237L11.001 6.5L10.766 7.226H10.002ZM14.002 7.226L14.62 7.675L14.384 8.4L15.001 7.952L15.619 8.4L15.383 7.675L16.001 7.226H15.237L15.001 6.5L14.766 7.226H14.002ZM2.00195 11.226L2.61995 11.675L2.38395 12.4L3.00095 11.952L3.61895 12.4L3.38295 11.675L4.00095 11.226H3.23695L3.00095 10.5L2.76595 11.226H2.00195ZM6.38395 12.4L7.00095 11.952L7.61895 12.4L7.38295 11.675L8.00095 11.226H7.23695L7.00095 10.5L6.76595 11.226H6.00195L6.61995 11.675L6.38395 12.4ZM10.002 11.226L10.62 11.675L10.384 12.4L11.001 11.952L11.619 12.4L11.383 11.675L12.001 11.226H11.237L11.001 10.5L10.766 11.226H10.002ZM14.002 11.226L14.62 11.675L14.384 12.4L15.001 11.952L15.619 12.4L15.383 11.675L16.001 11.226H15.237L15.001 10.5L14.766 11.226H14.002Z" fill="white"/>
</svg>
